<?xml version="1.0" encoding="UTF-8"?><svg id="ILLUSTRATIONS" xmlns="http://www.w3.org/2000/svg" viewBox="0 0 1000 1000"><path d="M732.6483,407.0091h0c0-38.0611,30.8545-68.9155,68.9154-68.9155h25.2356c39.029,0,70.6683-31.6393,70.6683-70.6683h0c0-39.0292-31.6393-70.6684-70.6683-70.6684h-24.3591c-38.545,0-69.7918-31.2469-69.7918-69.7918h0c0-38.5451-31.2469-69.792-69.7918-69.792h-265.3365c-38.545,0-69.7918,31.2469-69.7918,69.7918h0c0,38.5451-31.2469,69.792-69.7918,69.792H95.6683c-39.029,0-70.6683,31.6393-70.6683,70.6683h0c0,39.0292,31.6393,70.6684,70.6683,70.6684h75.7812c38.0609,0,68.9154,30.8545,68.9154,68.9154h0c0,38.0611-30.8545,68.9155-68.9154,68.9155h-10.4934c-39.029,0-70.6683,31.6393-70.6683,70.6683h0c0,39.0292,31.6393,70.6684,70.6683,70.6684h743.3757c39.029,0,70.6683-31.6393,70.6683-70.6683h0c0-39.0292-31.6393-70.6684-70.6683-70.6684h-102.768c-38.0609,0-68.9154-30.8545-68.9154-68.9154Z" style="fill:#f0f0f0; stroke-width:0px;"/><rect x="131.1251" y="225.851" width="220.4925" height="63.4305" rx="31.7152" ry="31.7152" style="fill:#fff; stroke-width:0px;"/><rect x="270.825" y="225.851" width="80.7926" height="63.4305" rx="31.7152" ry="31.7152" style="fill:#d4d4d4; stroke-width:0px;"/><path d="M330.6826,271.0773l-5.0117-5.0103c2.0469-2.8477,3.168-6.2464,3.168-9.8256,0-4.5138-1.7576-8.7557-4.9471-11.9452-6.5863-6.5889-17.3068-6.5889-23.8876,0-6.5863,6.5863-6.5863,17.3041,0,23.8903,3.2918,3.2945,7.6171,4.939,11.9452,4.939,3.4492,0,6.8729-1.0928,9.7973-3.1868l5.0386,5.0359,3.8974-3.8974ZM303.9016,264.2892c-4.4384-4.4384-4.4384-11.6572,0-16.0956,2.2178-2.2178,5.1328-3.3268,8.0478-3.3268,2.9123,0,5.8272,1.1089,8.0451,3.3268,4.4384,4.4384,4.4384,11.6572,0,16.0956s-11.6599,4.433-16.0929,0Z" style="fill:#fff; stroke-width:0px;"/><path d="M592.3208,146.2531c-22.2633,2.2725-39.9451,20.7474-41.364,43.0814-.8505,13.3862,4.0304,25.6023,12.3702,34.5517l-2.2702,20.3106c-.2513,2.2481,2.1367,3.8449,4.1183,2.754l18.6355-10.2598c6.3869,1.9247,13.3363,2.5483,20.5755,1.4234,20.9475-3.2552,37.2902-20.8114,38.9889-41.9422,2.3276-28.954-21.9833-52.8865-51.0542-49.9191Z" style="fill:#d4d4d4; stroke-width:0px;"/><rect x="568.0065" y="177.738" width="53.2608" height="34.3624" rx="5.2989" ry="5.2989" style="fill:#fff; stroke-width:0px;"/><circle cx="582.9594" cy="192.7118" r="7.9749" style="fill:#d4d4d4; stroke-width:0px;"/><circle cx="606.3144" cy="192.7118" r="7.9749" style="fill:#d4d4d4; stroke-width:0px;"/><path d="M624.6003,201.9894h-3.333v-17.089h3.333c2.367,0,4.2858,1.9188,4.2858,4.2858v8.5174c0,2.367-1.9188,4.2858-4.2858,4.2858Z" style="fill:#fff; stroke-width:0px;"/><path d="M623.172,170.3188h0c-1.0519,0-1.9047.8528-1.9047,1.9047v12.6769h3.8094v-12.6769c0-1.0519-.8528-1.9047-1.9047-1.9047Z" style="fill:#fff; stroke-width:0px;"/><rect x="584.6683" y="203.5559" width="19.9372" height="5.6963" rx="2.8482" ry="2.8482" style="fill:#d4d4d4; stroke-width:0px;"/><path d="M635.9528,475.8761c-29.2869,0-53.1126,23.8257-53.1126,53.1126s23.8257,53.1126,53.1126,53.1126,53.1126-23.8257,53.1126-53.1126-23.8257-53.1126-53.1126-53.1126ZM635.9528,576.589c-6.3386,0-13.2062-10.7824-16.3311-27.8012,5.3333.646,10.8672.977,16.3311.977s10.9977-.3311,16.3311-.977c-3.1249,17.0188-9.9924,27.8012-16.3311,27.8012ZM635.9528,544.2526c-6.1435,0-11.9088-.4266-17.1977-1.1439-.545-4.3994-.86-9.117-.86-14.1199s.3149-9.7206.86-14.1199c5.2889-.7173,11.0543-1.1439,17.1977-1.1439s11.9088.4266,17.1977,1.1439c.545,4.3994.86,9.117.86,14.1199s-.3149,9.7206-.86,14.1199c-5.2889.7173-11.0543,1.1439-17.1977,1.1439ZM613.1203,542.2117c-15.0216-2.851-24.7678-8.2396-24.7678-13.223s9.7462-10.3719,24.7678-13.223c-.4643,4.2224-.7375,8.6325-.7375,13.223s.2732,9.0006.7375,13.223ZM635.9528,481.3884c6.3386,0,13.2062,10.7824,16.3311,27.8012-5.3333-.646-10.8672-.977-16.3311-.977s-10.9977.3311-16.3311.977c3.1249-17.0188,9.9924-27.8012,16.3311-27.8012ZM658.7854,515.7658c15.0216,2.851,24.7678,8.2396,24.7678,13.223s-9.7462,10.3719-24.7678,13.223c.4643-4.2224.7375-8.6325.7375-13.223s-.2732-9.0006-.7375-13.223ZM682.346,518.4836c-5.6752-3.9351-14.4416-6.7814-24.3452-8.465-1.907-11.5401-5.5069-21.046-10.1701-27.0691,17.1614,4.4323,30.5856,18.1788,34.5153,35.534ZM624.075,482.9495c-4.6631,6.023-8.2631,15.529-10.1701,27.0691-9.9036,1.6836-18.67,4.5299-24.3452,8.465,3.9297-17.3552,17.3539-31.1017,34.5153-35.534ZM589.5597,539.4939c5.6752,3.9351,14.4416,6.7814,24.3452,8.465,1.907,11.5401,5.5069,21.046,10.1701,27.0691-17.1614-4.4323-30.5856-18.1788-34.5153-35.534ZM647.8307,575.0279c4.6631-6.023,8.2631-15.529,10.1701-27.0691,9.9036-1.6836,18.67-4.5299,24.3452-8.465-3.9297,17.3552-17.3539,31.1017-34.5153,35.534Z" style="fill:#d4d4d4; stroke-width:0px;"/><polygon points="345.7629 482.7388 322.2341 502.7138 322.2341 460.2531 303.5153 460.2531 303.5153 502.7144 279.9843 482.7388 267.8691 497.011 312.8747 535.2141 357.878 497.011 345.7629 482.7388" style="fill:#d4d4d4; stroke-width:0px;"/><polygon points="795.8969 265.5281 813.4585 250.6189 813.4585 282.3112 827.4301 282.3112 827.4301 250.6185 844.9934 265.5281 854.0361 254.8754 820.4443 226.361 786.8543 254.8754 795.8969 265.5281" style="fill:#d4d4d4; stroke-width:0px;"/><circle cx="241.3714" cy="114.0749" r="49.5431" style="fill:#f0f0f0; stroke-width:0px;"/><circle cx="805.99" cy="408.5487" r="49.5431" style="fill:#f0f0f0; stroke-width:0px;"/><circle cx="160.8772" cy="408.2778" r="33.0329" style="fill:#f0f0f0; stroke-width:0px;"/><circle cx="828.3422" cy="136.9119" r="33.0329" style="fill:#f0f0f0; stroke-width:0px;"/><rect x="316.5277" y="333.7865" width="28.3098" height="28.3098" rx="3.3816" ry="3.3816" transform="translate(-149.177 335.7376) rotate(-45)" style="fill:#d4d4d4; stroke-width:0px;"/><rect x="839.7149" y="541.5494" width="28.3098" height="28.3098" rx="3.3816" ry="3.3816" transform="translate(-142.8496 766.5392) rotate(-45)" style="fill:#d4d4d4; stroke-width:0px;"/><rect x="650.9334" y="394.3936" width="28.3098" height="28.3098" rx="3.3816" ry="3.3816" transform="translate(-94.0875 589.9495) rotate(-45)" style="fill:#d4d4d4; stroke-width:0px;"/><rect x="160.6115" y="541.5494" width="28.3098" height="28.3098" rx="3.3816" ry="3.3816" transform="translate(-341.7544 286.3405) rotate(-45)" style="fill:#d4d4d4; stroke-width:0px;"/><rect x="651.3643" y="99.92" width="28.3098" height="28.3098" rx="3.3816" ry="3.3816" transform="translate(114.2629 504.0049) rotate(-45)" style="fill:#d4d4d4; stroke-width:0px;"/><polygon points="353.2677 896.2824 358.398 832.8019 416.4551 839.7368 411.9208 896.2824 353.2677 896.2824" style="fill:#ce8172; stroke-width:0px;"/><polygon points="404.7193 481.97 348.5292 847.5607 440.6382 853.9621 496.117 494.4171 404.7193 481.97" style="fill:#ff8117; stroke-width:0px;"/><rect x="231.3139" y="668.9896" width="322.0935" height="2.7552" transform="translate(-329.4045 957.4109) rotate(-81.3475)" style="fill:#eb6317; stroke-width:0px;"/><polygon points="534.1036 857.7713 542.1714 910.8345 598.7171 895.749 586.9812 839.7368 534.1036 857.7713" style="fill:#ce8172; stroke-width:0px;"/><path d="M405.0824,408.5485s-34.554,44.9708,0,97.6045l116.2554,363.405,90.3108-17.856-84.5264-443.1535h-122.0398Z" style="fill:#ff9b17; stroke-width:0px;"/><path d="M486.6932,487.7486c-.716,0-1.4346-.2772-1.9729-.8317-1.0632-1.0901-1.0416-2.8369.0484-3.8974,19.818-19.312,21.5648-42.2576,21.5783-42.4863.1023-1.518,1.4185-2.6243,2.9338-2.5678,1.518.1023,2.6673,1.4158,2.5678,2.9338-.07,1.0228-1.9164,25.298-23.2309,46.0661-.5356.5222-1.23.7832-1.9245.7832Z" style="fill:#ff7f17; stroke-width:0px;"/><rect x="544.4257" y="655.1632" width="23.3273" height="141.5419" rx="11.6636" ry="11.6636" transform="translate(-144.9749 138.8016) rotate(-12.6009)" style="fill:#ffb33d; stroke-width:0px;"/><polygon points="528.8207 839.7368 430.1023 513.9735 432.81 513.4514 531.5284 839.2146 528.8207 839.7368" style="fill:#ff7f17; stroke-width:0px;"/><path d="M530.2737,425.0688l-3.1518-16.5201h-122.0395s-4.7075,6.1415-8.9091,16.5201h134.1004Z" style="fill:#ec8317; stroke-width:0px;"/><path d="M518.7039,870.9087l93.3649-17.2479c4.1464-.766,6.8416-4.8046,5.958-8.9275l-5.3519-24.9709c-.859-4.0077-4.7819-6.5787-8.7994-5.7671l-93.3286,18.8542c-4.1212.8326-6.748,4.8959-5.8153,8.9956l5.3156,23.3646c.8904,3.9137,4.7098,6.4281,8.6567,5.699Z" style="fill:#ffb617; stroke-width:0px;"/><path d="M345.1998,856.5638l94.1829,12.0036c4.1827.5331,7.9798-2.4929,8.3937-6.6891l2.5066-25.4147c.4023-4.0789-2.5513-7.7225-6.6252-8.1729l-94.6374-10.4625c-4.179-.462-7.9184,2.6084-8.2785,6.7974l-2.0521,23.8736c-.3437,3.999,2.5285,7.5571,6.51,8.0645Z" style="fill:#ff9b17; stroke-width:0px;"/><path d="M588.3199,880.213c3.2414-1.9928,7.3911-1.7834,10.4818.4358,5.1182,3.6749,12.9705,9.9007,19.9941,17.9123,11.6296,13.2655,46.6416,13.0609,53.0309,16.5217,15.9259,8.6265,17.6529,19.0613,17.3339,24.3364-.1167,1.9299-1.7641,3.4077-3.6976,3.4077h-147.2104c-1.9752,0-3.6011-1.5381-3.7024-3.5107-.5447-10.6135-1.6231-42.0201,4.2614-48.2919,6.7099-7.1515,22.291,5.9221,49.5083-10.8113Z" style="fill:#2769a4; stroke-width:0px;"/><rect x="590.9614" y="888.8339" width="28.0061" height="9.2959" rx="4.648" ry="4.648" transform="translate(-441.6373 630.9624) rotate(-41.8176)" style="fill:#27293b; stroke-width:0px;"/><rect x="605.7001" y="899.852" width="28.0061" height="9.2959" rx="4.6479" ry="4.6479" transform="translate(-475.7906 859.2724) rotate(-53.2195)" style="fill:#27293b; stroke-width:0px;"/><path d="M538.2533,942.8268h147.203c1.9452,0,3.5895-1.4918,3.7016-3.4338.2047-3.5452-.5193-9.4007-5.8181-15.4716h-149.2314c.0315,6.2796.2653,11.9408.4425,15.3965.1012,1.9725,1.7273,3.5089,3.7023,3.5089Z" style="fill:#27293b; stroke-width:0px;"/><path d="M403.6575,880.213c3.2414-1.9928,7.3911-1.7834,10.4818.4358,5.1182,3.6749,12.9705,9.9007,19.9941,17.9123,11.6296,13.2655,46.6416,13.0609,53.0309,16.5217,15.9259,8.6265,17.6529,19.0613,17.3339,24.3364-.1167,1.9299-1.7641,3.4077-3.6976,3.4077h-147.2104c-1.9752,0-3.6011-1.5381-3.7024-3.5107-.5447-10.6135-1.6231-42.0201,4.2614-48.2919,6.7099-7.1515,22.291,5.9221,49.5083-10.8113Z" style="fill:#2769a4; stroke-width:0px;"/><rect x="402.4521" y="888.8339" width="28.0061" height="9.2959" rx="4.6479" ry="4.6479" transform="translate(-489.6567 505.2731) rotate(-41.8177)" style="fill:#27293b; stroke-width:0px;"/><rect x="417.1908" y="899.852" width="28.0061" height="9.2959" rx="4.6479" ry="4.6479" transform="translate(-551.4299 708.2886) rotate(-53.2195)" style="fill:#27293b; stroke-width:0px;"/><path d="M353.5909,942.8268h147.203c1.9452,0,3.5895-1.4918,3.7016-3.4338.2047-3.5452-.5193-9.4007-5.8181-15.4716h-149.2314c.0315,6.2796.2653,11.9408.4425,15.3965.1012,1.9725,1.7273,3.5089,3.7023,3.5089Z" style="fill:#27293b; stroke-width:0px;"/><circle cx="533.7564" cy="629.5577" r="12.2966" style="fill:#ffb33d; stroke-width:0px;"/><path d="M722.4774,216.7566c27.2059,21.8714-22.9383,64.0139-22.9383,64.0139l-123.1276,126.9226c-17.3832,17.919-46.5025,16.6778-62.2979-2.6554l-70.1516-85.8641c-14.1024-17.2611-11.2393-42.7457,6.3416-56.4472h0c17.1415-13.3591,41.8373-10.4579,55.416,6.5101l56.6098,70.7397c.9273,1.1587,2.6413,1.2913,3.7357.289l99.3331-90.9682s4.801-23.2251,13.8697-25.749c9.0686-2.5239,5.8679,15.6134,5.8679,15.6134l37.3415-22.4049Z" style="fill:#c0756c; stroke-width:0px;"/><path d="M506.3553,269.2367c-13.5789-16.9683-38.274-19.8691-55.4166-6.5102h0c-17.5813,13.7014-20.4438,39.1858-6.3413,56.4468l23.5041,28.7681,59.1633-52.5763-20.9094-26.1284Z" style="fill:#2769a4; stroke-width:0px;"/><path d="M523.7261,413.5636h-120.77c-5.5396,0-10.0303-4.4907-10.0303-10.0303v-95.7891c0-38.8893,31.526-70.4153,70.4153-70.4153h.0001c38.8893,0,70.4153,31.526,70.4153,70.4153v95.7891c0,5.5396-4.4907,10.0303-10.0303,10.0303Z" style="fill:#274f83; stroke-width:0px;"/><polygon points="439.1151 325.4463 481.4508 413.5636 523.7261 413.5636 439.1151 325.4463" style="fill:#273f6c; stroke-width:0px;"/><path d="M486.3823,256.5338c12.1766-2.0348,17.6876-4.2978,16.7348-6.8904-4.6322-3.1774-9.6627-5.8118-15.0014-7.8197-2.2865-.759-4.6268-1.4454-7.0465-1.9157l.0498-.3109c-5.6792-1.4777-11.6356-2.2683-17.7778-2.2683h0c-11.5091,0-22.3615,2.7784-31.9542,7.6743,1.5584,1.0968,24.3344,16.6547,54.9954,11.5307Z" style="fill:#fff; stroke-width:0px;"/><path d="M435.0014,195.8712l.0002,47.4002s20.4842,14.4719,48.3257,9.9376c14.2956-2.3282,18.12-5.0059,11.8598-8.2431-4.6184-2.3882-10.3929-4.7967-16.516-5.9554l5.0512-30.3445-48.7209-12.7948Z" style="fill:#ce8172; stroke-width:0px;"/><path d="M501.3287,179.6827c10.9742-3.5129,18.5853-14.2156,20.8842-25.5067,2.2988-11.2911.0175-23.0548-3.7314-33.9506-10.6817,2.5977-21.4182-3.0943-31.503-7.4694-12.2455-5.3125-25.4663-8.3673-38.8012-8.9654-8.6279-.387-17.6795.3627-25.0625,4.844-7.383,4.4813-12.5315,13.5429-10.1935,21.857-21.716-3.4434-43.7653,40.2995-19.822,70.0088,8.0801,10.0259,23.4049,11.2081,35.8668,7.9667,12.4619-3.2414,23.4011-10.5326,34.6042-16.8806,11.2031-6.348,24.8972-12.5317,37.7585-11.9038Z" style="fill:#27293b; stroke-width:0px;"/><path d="M419.3445,174.8242c-7.1325,0-12.9137,5.7819-12.9137,12.9144s6.9474,12.9144,14.0799,12.9144l-1.1662-25.8287Z" style="fill:#ce8172; stroke-width:0px;"/><path d="M419.3445,180.511c-3.9915,0-7.2276,3.236-7.2276,7.2276s3.236,7.2276,7.2276,7.2276v-14.4551Z" style="fill:#c05e53; stroke-width:0px;"/><path d="M478.8352,238.0226l4.8865-29.3569-48.72-12.7943v36.4027c7.8621,5.3905,17.37,8.5565,27.6235,8.5565,5.69,0,11.1296-1.0214,16.2099-2.808Z" style="fill:#c0756c; stroke-width:0px;"/><path d="M432.4867,157.5748c2.1636,30.0085-13.1422,30.1637-13.1422,30.1637v4.712c0,23.903,19.3778,43.2808,43.2808,43.2808h0c23.903,0,43.2808-19.3778,43.2808-43.2808v-32.5196c-27.2103,27.1324-73.4193-2.3561-73.4193-2.3561Z" style="fill:#ce8172; stroke-width:0px;"/><path d="M471.4763,203.3978c-.3751,6.4001,4.3539,12.0004,10.7868,12.6019,6.4329.6015,12.1182-4.0251,12.936-10.3838l-23.7229-2.2181Z" style="fill:#8f453d; stroke-width:0px;"/><path d="M487.2526,215.3708c-2.0837-3.6985-6.5763-5.4356-10.6469-3.8507-.6188.241-1.1797.5603-1.7057.9192,1.9009,1.9458,4.4386,3.2867,7.363,3.5604,1.7508.1639,3.4323-.0884,4.9897-.6289Z" style="fill:#c05e53; stroke-width:0px;"/><path d="M476.4392,203.8618c1.3191,3.3183,4.683,5.5208,8.412,5.1446,2.6052-.2629,4.7731-1.7381,6.0757-3.7898l-14.4877-1.3547Z" style="fill:#fff; stroke-width:0px;"/><path d="M481.4508,185.391c0,2.2109-1.3624,4.0031-3.0431,4.0031-1.6807,0-3.0431-1.7923-3.0431-4.0031,0-2.2109,1.3624-4.0031,3.0431-4.0031,1.6807,0,3.0431,1.7923,3.0431,4.0031Z" style="fill:#27293b; stroke-width:0px;"/><ellipse cx="496.9569" cy="185.391" rx="3.0431" ry="4.0031" style="fill:#27293b; stroke-width:0px;"/><ellipse cx="452.9231" cy="121.5803" rx="10.5356" ry="21.7031" transform="translate(286.7176 560.097) rotate(-84.2684)" style="fill:#404361; stroke-width:0px;"/><path d="M741.1883,219.3108l-102.4431,61.4659c-1.1258.6755-2.5838.3463-3.3101-.7474l-6.4799-9.7567c-.7784-1.172-.4153-2.757.7957-3.4733l102.089-60.3871c1.0594-.6266,2.419-.3725,3.1805.5945l6.8341,8.6779c.9156,1.1626.6029,2.8649-.666,3.6262Z" style="fill:#27293b; stroke-width:0px;"/><path d="M722.4774,230.5374c27.2059,21.8714-22.9383,64.0139-22.9383,64.0139l-123.1276,126.9226c-17.3832,17.919-46.5025,16.6778-62.2979-2.6554l-70.1516-85.8641c-14.1024-17.2611-11.2393-42.7457,6.3416-56.4472h0c17.1415-13.3591,41.8373-10.4579,55.416,6.5101l56.6098,70.7397c.9273,1.1587,2.6413,1.2913,3.7357.289l99.3331-90.9682s4.801-23.2251,13.8697-25.749c9.0686-2.5239,5.8679,15.6134,5.8679,15.6134l37.3415-22.4049Z" style="fill:#ce8172; stroke-width:0px;"/><path d="M505.7199,283.0175c-13.5789-16.9683-38.274-19.8691-55.4166-6.5102h0c-17.5813,13.7014-20.4438,39.1858-6.3413,56.4468l23.5041,28.7681,59.1633-52.5763-20.9094-26.1284Z" style="fill:#2769a4; stroke-width:0px;"/><rect x="481.9418" y="278.4048" width="16.0028" height="31.1262" rx="8.0014" ry="8.0014" transform="translate(-76.3571 369.8985) rotate(-38.6007)" style="fill:#2e7cc2; stroke-width:0px;"/><rect x="606.3326" y="315.5206" width="79.6286" height="16.5454" rx="8.2727" ry="8.2727" transform="translate(-39.7044 551.7317) rotate(-45)" style="fill:#db8e7f; stroke-width:0px;"/><path d="M541.3713,419.3785c-26.4058-4.801-73.9052-57.6564-73.9052-57.6564v.0007l46.6475,57.0955c15.7954,19.3335,44.9141,20.575,62.2976,2.6559l35.238-36.3233c-.0013,0-41.1842,39.5174-70.2778,34.2277Z" style="fill:#c0756c; stroke-width:0px;"/></svg>